<svg xmlns="http://www.w3.org/2000/svg" viewBox="0 0 24 24" fill="currentColor">
  <path d="M12 .5C5.73.5.75 5.55.75 11.79c0 4.99 3.23 9.23 7.71 10.72.56.11.77-.25.77-.55 0-.27-.01-1-.01-1.96-3.14.7-3.8-1.54-3.8-1.54-.52-1.35-1.28-1.71-1.28-1.71-1.05-.73.08-.72.08-.72 1.16.08 1.78 1.22 1.78 1.22 1.03 1.79 2.7 1.27 3.36.97.1-.76.4-1.27.73-1.56-2.51-.29-5.14-1.28-5.14-5.69 0-1.26.45-2.29 1.2-3.1-.12-.29-.52-1.47.11-3.06 0 0 .98-.31 3.2 1.19a10.9 10.9 0 0 1 5.82 0c2.2-1.5 3.19-1.19 3.19-1.19.63 1.59.23 2.77.11 3.06.75.81 1.19 1.84 1.19 3.1 0 4.42-2.64 5.39-5.15 5.68.41.36.78 1.08.78 2.18 0 1.57-.01 2.83-.01 3.22 0 .31.21.67.78.55A11.06 11.06 0 0 0 23.25 11.8C23.25 5.55 18.27.5 12 .5Z"/>
</svg>
